<svg xmlns="http://www.w3.org/2000/svg" width="230.386" height="67" viewBox="0 0 230.386 67"><g transform="translate(-72 -63.382)"><text transform="translate(157 116.382)" fill="#fff" font-size="56" font-family="SFProText-Bold, SF Pro Text" font-weight="700"><tspan x="-84.41" y="0">GAME</tspan></text><g transform="translate(13.12 -171.006) rotate(-30)"><g transform="translate(64 348)" fill="none" stroke="#fff" stroke-width="3"><rect width="53.219" height="27.503" rx="13.751" stroke="none"/><rect x="1.5" y="1.5" width="50.219" height="24.503" rx="12.251" fill="none"/></g><g transform="matrix(0.966, -0.259, 0.259, 0.966, 94.735, 358.573)" fill="none" stroke="#fff" stroke-width="2"><circle cx="1.964" cy="1.964" r="1.964" stroke="none"/><circle cx="1.964" cy="1.964" r="0.964" fill="none"/></g><g transform="matrix(0.966, -0.259, 0.259, 0.966, 96.215, 364.093)" fill="none" stroke="#38c781" stroke-width="2"><circle cx="1.964" cy="1.964" r="1.964" stroke="none"/><circle cx="1.964" cy="1.964" r="0.964" fill="none"/></g><g transform="matrix(0.966, -0.259, 0.259, 0.966, 101.981, 356.632)" fill="none" stroke="#38c781" stroke-width="2"><circle cx="1.964" cy="1.964" r="1.964" stroke="none"/><circle cx="1.964" cy="1.964" r="0.964" fill="none"/></g><g transform="matrix(0.966, -0.259, 0.259, 0.966, 103.46, 362.152)" fill="none" stroke="#fff" stroke-width="2"><circle cx="1.964" cy="1.964" r="1.964" stroke="none"/><circle cx="1.964" cy="1.964" r="0.964" fill="none"/></g><g transform="translate(74.001 356.929)" fill="none"><path d="M3.572,9.644V6.072H0v-2.5H3.572V0h2.5V3.572H9.644v2.5H6.072V9.644Z" stroke="none"/><path d="M 5.572049140930176 9.143778800964355 L 5.572049140930176 6.072049140930176 L 5.572049140930176 5.572049140930176 L 6.072049140930176 5.572049140930176 L 9.143778800964355 5.572049140930176 L 9.143778800964355 4.071728706359863 L 6.072049140930176 4.071728706359863 L 5.572049140930176 4.071728706359863 L 5.572049140930176 3.571728944778442 L 5.572049140930176 0.499998927116394 L 4.071728706359863 0.499998927116394 L 4.071728706359863 3.571728944778442 L 4.071728706359863 4.071728706359863 L 3.571728944778442 4.071728706359863 L 0.499998927116394 4.071728706359863 L 0.499998927116394 5.572049140930176 L 3.571728944778442 5.572049140930176 L 4.071728706359863 5.572049140930176 L 4.071728706359863 6.072049140930176 L 4.071728706359863 9.143778800964355 L 5.572049140930176 9.143778800964355 M 6.072049140930176 9.643778800964355 L 3.571728944778442 9.643778800964355 L 3.571728944778442 6.072049140930176 L -1.076355033546861e-06 6.072049140930176 L -1.076355033546861e-06 3.571728944778442 L 3.571728944778442 3.571728944778442 L 3.571728944778442 -1.076355033546861e-06 L 6.072049140930176 -1.076355033546861e-06 L 6.072049140930176 3.571728944778442 L 9.643778800964355 3.571728944778442 L 9.643778800964355 6.072049140930176 L 6.072049140930176 6.072049140930176 L 6.072049140930176 9.643778800964355 Z" stroke="none" fill="#fff"/></g></g></g></svg>